<svg width="1526" height="513" viewBox="0 0 1526 513" fill="none" xmlns="http://www.w3.org/2000/svg">
<rect x="689" width="288" height="80.4695" rx="2.41408" fill="#979CE8"/>
<path d="M770.682 52C777.773 52 782.069 47.6136 782.069 40.3409C782.069 33.0909 777.773 28.7273 770.751 28.7273H762.432V52H770.682ZM767.353 47.7841V32.9432H770.489C774.853 32.9432 777.16 35.1705 777.16 40.3409C777.16 45.5341 774.853 47.7841 770.478 47.7841H767.353ZM789.896 52.3295C792.476 52.3295 794.146 51.2045 794.998 49.5795H795.135V52H799.726V40.2273C799.726 36.0682 796.203 34.3182 792.317 34.3182C788.135 34.3182 785.385 36.3182 784.714 39.5L789.192 39.8636C789.521 38.7045 790.555 37.8523 792.294 37.8523C793.942 37.8523 794.885 38.6818 794.885 40.1136V40.1818C794.885 41.3068 793.692 41.4545 790.657 41.75C787.203 42.0682 784.101 43.2273 784.101 47.125C784.101 50.5795 786.567 52.3295 789.896 52.3295ZM791.282 48.9886C789.794 48.9886 788.726 48.2955 788.726 46.9659C788.726 45.6023 789.851 44.9318 791.555 44.6932C792.612 44.5455 794.339 44.2955 794.919 43.9091V45.7614C794.919 47.5909 793.407 48.9886 791.282 48.9886ZM812.061 34.5455H808.777V30.3636H803.936V34.5455H801.55V38.1818H803.936V47.2727C803.914 50.6932 806.243 52.3864 809.755 52.2386C811.005 52.1932 811.891 51.9432 812.38 51.7841L811.618 48.1818C811.38 48.2273 810.868 48.3409 810.414 48.3409C809.448 48.3409 808.777 47.9773 808.777 46.6364V38.1818H812.061V34.5455ZM819.488 52.3295C822.068 52.3295 823.738 51.2045 824.59 49.5795H824.727V52H829.318V40.2273C829.318 36.0682 825.795 34.3182 821.909 34.3182C817.727 34.3182 814.977 36.3182 814.306 39.5L818.784 39.8636C819.113 38.7045 820.147 37.8523 821.886 37.8523C823.534 37.8523 824.477 38.6818 824.477 40.1136V40.1818C824.477 41.3068 823.284 41.4545 820.249 41.75C816.795 42.0682 813.693 43.2273 813.693 47.125C813.693 50.5795 816.159 52.3295 819.488 52.3295ZM820.874 48.9886C819.386 48.9886 818.318 48.2955 818.318 46.9659C818.318 45.6023 819.443 44.9318 821.147 44.6932C822.204 44.5455 823.931 44.2955 824.511 43.9091V45.7614C824.511 47.5909 822.999 48.9886 820.874 48.9886ZM848.356 34.5455H845.072V30.3636H840.231V34.5455H837.844V38.1818H840.231V47.2727C840.208 50.6932 842.537 52.3864 846.049 52.2386C847.299 52.1932 848.185 51.9432 848.674 51.7841L847.912 48.1818C847.674 48.2273 847.162 48.3409 846.708 48.3409C845.742 48.3409 845.072 47.9773 845.072 46.6364V38.1818H848.356V34.5455ZM853.794 58.5455C857.396 58.5455 859.305 56.7045 860.294 53.8864L867.078 34.5682L861.953 34.5455L858.305 47.3636H858.123L854.51 34.5455H849.419L855.68 52.5L855.396 53.2386C854.76 54.875 853.544 54.9545 851.839 54.4318L850.748 58.0455C851.441 58.3409 852.566 58.5455 853.794 58.5455ZM868.851 58.5455H873.692V49.2045H873.84C874.51 50.6591 875.976 52.2841 878.794 52.2841C882.772 52.2841 885.874 49.1364 885.874 43.2955C885.874 37.2955 882.635 34.3182 878.806 34.3182C875.885 34.3182 874.487 36.0568 873.84 37.4773H873.624V34.5455H868.851V58.5455ZM873.59 43.2727C873.59 40.1591 874.908 38.1705 877.26 38.1705C879.658 38.1705 880.931 40.25 880.931 43.2727C880.931 46.3182 879.635 48.4318 877.26 48.4318C874.931 48.4318 873.59 46.3864 873.59 43.2727ZM896.352 52.3409C900.67 52.3409 903.579 50.2386 904.261 47L899.783 46.7045C899.295 48.0341 898.045 48.7273 896.431 48.7273C894.011 48.7273 892.477 47.125 892.477 44.5227V44.5114H904.363V43.1818C904.363 37.25 900.772 34.3182 896.158 34.3182C891.022 34.3182 887.693 37.9659 887.693 43.3523C887.693 48.8864 890.977 52.3409 896.352 52.3409ZM892.477 41.5114C892.579 39.5227 894.09 37.9318 896.238 37.9318C898.34 37.9318 899.795 39.4318 899.806 41.5114H892.477Z" fill="#333333"/>
<rect x="356" y="160" width="288" height="80.4695" rx="2.41408" fill="#C6C9F3"/>
<path d="M423.165 209H426.855V203.341H429.957C433.971 203.341 436.307 200.946 436.307 197.46C436.307 193.991 434.014 191.545 430.051 191.545H423.165V209ZM426.855 200.384V194.562H429.344C431.474 194.562 432.506 195.722 432.506 197.46C432.506 199.19 431.474 200.384 429.361 200.384H426.855ZM438.18 209H441.81V201.594C441.81 199.983 442.986 198.875 444.589 198.875C445.091 198.875 445.782 198.96 446.123 199.071V195.849C445.799 195.773 445.347 195.722 444.981 195.722C443.515 195.722 442.313 196.574 441.836 198.193H441.699V195.909H438.18V209ZM447.544 209H451.175V195.909H447.544V209ZM449.368 194.222C450.45 194.222 451.336 193.395 451.336 192.381C451.336 191.375 450.45 190.548 449.368 190.548C448.294 190.548 447.407 191.375 447.407 192.381C447.407 193.395 448.294 194.222 449.368 194.222ZM453.627 209H457.258V201.142C457.258 199.693 458.178 198.73 459.388 198.73C460.581 198.73 461.383 199.548 461.383 200.835V209H464.902V201.006C464.902 199.651 465.678 198.73 466.999 198.73C468.158 198.73 469.027 199.455 469.027 200.912V209H472.65V200.196C472.65 197.358 470.962 195.739 468.525 195.739C466.607 195.739 465.116 196.719 464.579 198.219H464.442C464.025 196.702 462.687 195.739 460.888 195.739C459.124 195.739 457.786 196.676 457.241 198.219H457.087V195.909H453.627V209ZM475.062 209H478.692V195.909H475.062V209ZM476.885 194.222C477.968 194.222 478.854 193.395 478.854 192.381C478.854 191.375 477.968 190.548 476.885 190.548C475.812 190.548 474.925 191.375 474.925 192.381C474.925 193.395 475.812 194.222 476.885 194.222ZM488.108 195.909H485.645V192.773H482.014V195.909H480.224V198.636H482.014V205.455C481.997 208.02 483.744 209.29 486.378 209.179C487.315 209.145 487.98 208.957 488.346 208.838L487.775 206.136C487.596 206.17 487.213 206.256 486.872 206.256C486.147 206.256 485.645 205.983 485.645 204.977V198.636H488.108V195.909ZM490.017 209H493.647V195.909H490.017V209ZM491.841 194.222C492.923 194.222 493.809 193.395 493.809 192.381C493.809 191.375 492.923 190.548 491.841 190.548C490.767 190.548 489.88 191.375 489.88 192.381C489.88 193.395 490.767 194.222 491.841 194.222ZM508.304 195.909H504.461L501.75 205.276H501.614L498.895 195.909H495.06L499.637 209H503.728L508.304 195.909ZM515.227 209.256C518.465 209.256 520.647 207.679 521.159 205.25L517.801 205.028C517.434 206.026 516.497 206.545 515.287 206.545C513.471 206.545 512.321 205.344 512.321 203.392V203.384H521.235V202.386C521.235 197.938 518.542 195.739 515.082 195.739C511.23 195.739 508.733 198.474 508.733 202.514C508.733 206.665 511.196 209.256 515.227 209.256ZM512.321 201.134C512.397 199.642 513.531 198.449 515.142 198.449C516.718 198.449 517.809 199.574 517.818 201.134H512.321ZM535.21 195.909H532.747V192.773H529.117V195.909H527.327V198.636H529.117V205.455C529.1 208.02 530.847 209.29 533.48 209.179C534.418 209.145 535.083 208.957 535.449 208.838L534.878 206.136C534.699 206.17 534.316 206.256 533.975 206.256C533.25 206.256 532.747 205.983 532.747 204.977V198.636H535.21V195.909ZM539.361 213.909C542.063 213.909 543.495 212.528 544.236 210.415L549.324 195.926L545.48 195.909L542.745 205.523H542.608L539.898 195.909H536.08L540.776 209.375L540.563 209.929C540.085 211.156 539.173 211.216 537.895 210.824L537.077 213.534C537.597 213.756 538.441 213.909 539.361 213.909ZM550.726 213.909H554.357V206.903H554.468C554.97 207.994 556.07 209.213 558.183 209.213C561.166 209.213 563.493 206.852 563.493 202.472C563.493 197.972 561.064 195.739 558.192 195.739C556.002 195.739 554.953 197.043 554.468 198.108H554.306V195.909H550.726V213.909ZM554.28 202.455C554.28 200.119 555.269 198.628 557.033 198.628C558.831 198.628 559.786 200.188 559.786 202.455C559.786 204.739 558.814 206.324 557.033 206.324C555.286 206.324 554.28 204.79 554.28 202.455ZM571.423 209.256C574.662 209.256 576.844 207.679 577.355 205.25L573.997 205.028C573.631 206.026 572.693 206.545 571.483 206.545C569.668 206.545 568.517 205.344 568.517 203.392V203.384H577.432V202.386C577.432 197.938 574.739 195.739 571.279 195.739C567.426 195.739 564.929 198.474 564.929 202.514C564.929 206.665 567.392 209.256 571.423 209.256ZM568.517 201.134C568.594 199.642 569.727 198.449 571.338 198.449C572.915 198.449 574.006 199.574 574.014 201.134H568.517Z" fill="#333333"/>
<path d="M834.5 84.4695C834.5 83.6411 833.828 82.9695 833 82.9695C832.172 82.9695 831.5 83.6411 831.5 84.4695H834.5ZM498.939 157.061C499.525 157.646 500.475 157.646 501.061 157.061L510.607 147.515C511.192 146.929 511.192 145.979 510.607 145.393C510.021 144.808 509.071 144.808 508.485 145.393L500 153.879L491.515 145.393C490.929 144.808 489.979 144.808 489.393 145.393C488.808 145.979 488.808 146.929 489.393 147.515L498.939 157.061ZM831.5 84.4695V96.2347H834.5V84.4695H831.5ZM809 118.735H524V121.735H809V118.735ZM498.5 144.235V156H501.5V144.235H498.5ZM524 118.735C509.917 118.735 498.5 130.151 498.5 144.235H501.5C501.5 131.808 511.574 121.735 524 121.735V118.735ZM831.5 96.2347C831.5 108.661 821.426 118.735 809 118.735V121.735C823.083 121.735 834.5 110.318 834.5 96.2347H831.5Z" fill="#CECCCC"/>
<rect x="1021" y="160" width="288" height="80.4695" rx="2.41408" fill="#C6C9F3"/>
<path d="M1080.28 209H1083.97V202.812H1086.66L1089.97 209H1094.04L1090.33 202.216C1092.32 201.364 1093.42 199.634 1093.42 197.247C1093.42 193.778 1091.13 191.545 1087.16 191.545H1080.28V209ZM1083.97 199.847V194.562H1086.46C1088.59 194.562 1089.62 195.509 1089.62 197.247C1089.62 198.977 1088.59 199.847 1086.47 199.847H1083.97ZM1101.26 209.256C1104.5 209.256 1106.68 207.679 1107.19 205.25L1103.83 205.028C1103.47 206.026 1102.53 206.545 1101.32 206.545C1099.5 206.545 1098.35 205.344 1098.35 203.392V203.384H1107.27V202.386C1107.27 197.938 1104.57 195.739 1101.11 195.739C1097.26 195.739 1094.76 198.474 1094.76 202.514C1094.76 206.665 1097.23 209.256 1101.26 209.256ZM1098.35 201.134C1098.43 199.642 1099.56 198.449 1101.17 198.449C1102.75 198.449 1103.84 199.574 1103.85 201.134H1098.35ZM1116.22 195.909H1113.62V195.031C1113.62 194.145 1113.98 193.625 1115.04 193.625C1115.48 193.625 1115.92 193.719 1116.21 193.812L1116.85 191.085C1116.4 190.949 1115.4 190.727 1114.29 190.727C1111.82 190.727 1109.99 192.116 1109.99 194.963V195.909H1108.14V198.636H1109.99V209H1113.62V198.636H1116.22V195.909ZM1123.48 209.256C1126.72 209.256 1128.9 207.679 1129.41 205.25L1126.05 205.028C1125.69 206.026 1124.75 206.545 1123.54 206.545C1121.72 206.545 1120.57 205.344 1120.57 203.392V203.384H1129.49V202.386C1129.49 197.938 1126.79 195.739 1123.33 195.739C1119.48 195.739 1116.99 198.474 1116.99 202.514C1116.99 206.665 1119.45 209.256 1123.48 209.256ZM1120.57 201.134C1120.65 199.642 1121.78 198.449 1123.39 198.449C1124.97 198.449 1126.06 199.574 1126.07 201.134H1120.57ZM1131.4 209H1135.03V201.594C1135.03 199.983 1136.21 198.875 1137.81 198.875C1138.31 198.875 1139 198.96 1139.34 199.071V195.849C1139.02 195.773 1138.57 195.722 1138.2 195.722C1136.74 195.722 1135.53 196.574 1135.06 198.193H1134.92V195.909H1131.4V209ZM1146.12 209.256C1149.36 209.256 1151.54 207.679 1152.05 205.25L1148.7 205.028C1148.33 206.026 1147.39 206.545 1146.18 206.545C1144.37 206.545 1143.22 205.344 1143.22 203.392V203.384H1152.13V202.386C1152.13 197.938 1149.44 195.739 1145.98 195.739C1142.13 195.739 1139.63 198.474 1139.63 202.514C1139.63 206.665 1142.09 209.256 1146.12 209.256ZM1143.22 201.134C1143.29 199.642 1144.43 198.449 1146.04 198.449C1147.61 198.449 1148.7 199.574 1148.71 201.134H1143.22ZM1157.67 201.432C1157.68 199.744 1158.69 198.756 1160.15 198.756C1161.61 198.756 1162.49 199.71 1162.48 201.312V209H1166.11V200.665C1166.11 197.614 1164.32 195.739 1161.6 195.739C1159.65 195.739 1158.25 196.693 1157.66 198.219H1157.5V195.909H1154.04V209H1157.67V201.432ZM1174.43 209.256C1177.92 209.256 1180.11 207.21 1180.28 204.202H1176.85C1176.64 205.599 1175.72 206.384 1174.48 206.384C1172.78 206.384 1171.68 204.96 1171.68 202.455C1171.68 199.983 1172.79 198.568 1174.48 198.568C1175.8 198.568 1176.66 199.446 1176.85 200.75H1180.28C1180.13 197.724 1177.83 195.739 1174.42 195.739C1170.44 195.739 1167.99 198.491 1167.99 202.506C1167.99 206.486 1170.4 209.256 1174.43 209.256ZM1188.11 209.256C1191.35 209.256 1193.53 207.679 1194.05 205.25L1190.69 205.028C1190.32 206.026 1189.38 206.545 1188.17 206.545C1186.36 206.545 1185.21 205.344 1185.21 203.392V203.384H1194.12V202.386C1194.12 197.938 1191.43 195.739 1187.97 195.739C1184.12 195.739 1181.62 198.474 1181.62 202.514C1181.62 206.665 1184.08 209.256 1188.11 209.256ZM1185.21 201.134C1185.28 199.642 1186.42 198.449 1188.03 198.449C1189.61 198.449 1190.7 199.574 1190.7 201.134H1185.21ZM1208.1 195.909H1205.63V192.773H1202V195.909H1200.21V198.636H1202V205.455C1201.99 208.02 1203.73 209.29 1206.37 209.179C1207.3 209.145 1207.97 208.957 1208.34 208.838L1207.76 206.136C1207.59 206.17 1207.2 206.256 1206.86 206.256C1206.14 206.256 1205.63 205.983 1205.63 204.977V198.636H1208.1V195.909ZM1212.25 213.909C1214.95 213.909 1216.38 212.528 1217.12 210.415L1222.21 195.926L1218.37 195.909L1215.63 205.523H1215.49L1212.78 195.909H1208.97L1213.66 209.375L1213.45 209.929C1212.97 211.156 1212.06 211.216 1210.78 210.824L1209.96 213.534C1210.48 213.756 1211.33 213.909 1212.25 213.909ZM1223.61 213.909H1227.24V206.903H1227.35C1227.86 207.994 1228.96 209.213 1231.07 209.213C1234.05 209.213 1236.38 206.852 1236.38 202.472C1236.38 197.972 1233.95 195.739 1231.08 195.739C1228.89 195.739 1227.84 197.043 1227.35 198.108H1227.19V195.909H1223.61V213.909ZM1227.17 202.455C1227.17 200.119 1228.16 198.628 1229.92 198.628C1231.72 198.628 1232.67 200.188 1232.67 202.455C1232.67 204.739 1231.7 206.324 1229.92 206.324C1228.17 206.324 1227.17 204.79 1227.17 202.455ZM1244.31 209.256C1247.55 209.256 1249.73 207.679 1250.24 205.25L1246.88 205.028C1246.52 206.026 1245.58 206.545 1244.37 206.545C1242.55 206.545 1241.4 205.344 1241.4 203.392V203.384H1250.32V202.386C1250.32 197.938 1247.63 195.739 1244.17 195.739C1240.31 195.739 1237.82 198.474 1237.82 202.514C1237.82 206.665 1240.28 209.256 1244.31 209.256ZM1241.4 201.134C1241.48 199.642 1242.61 198.449 1244.22 198.449C1245.8 198.449 1246.89 199.574 1246.9 201.134H1241.4Z" fill="#333333"/>
<path d="M834.5 84.4695C834.5 83.6411 833.828 82.9695 833 82.9695C832.172 82.9695 831.5 83.6411 831.5 84.4695H834.5ZM1163.94 157.061C1164.53 157.646 1165.47 157.646 1166.06 157.061L1175.61 147.515C1176.19 146.929 1176.19 145.979 1175.61 145.393C1175.02 144.808 1174.07 144.808 1173.49 145.393L1165 153.879L1156.51 145.393C1155.93 144.808 1154.98 144.808 1154.39 145.393C1153.81 145.979 1153.81 146.929 1154.39 147.515L1163.94 157.061ZM831.5 84.4695V96.2347H834.5V84.4695H831.5ZM857 121.735H1141V118.735H857V121.735ZM1163.5 144.235V156H1166.5V144.235H1163.5ZM1141 121.735C1153.43 121.735 1163.5 131.808 1163.5 144.235H1166.5C1166.5 130.151 1155.08 118.735 1141 118.735V121.735ZM831.5 96.2347C831.5 110.318 842.917 121.735 857 121.735V118.735C844.574 118.735 834.5 108.661 834.5 96.2347H831.5Z" fill="#CECCCC"/>
<rect y="304" width="209.4" height="80.4695" rx="2.41408" fill="#C6C9F3"/>
<path d="M75.0114 335.545H71.3381V346.523H71.1847L63.6506 335.545H60.4119V353H64.1023V342.014H64.2301L71.8239 353H75.0114V335.545ZM85.9311 347.426C85.9396 349.182 84.7379 350.102 83.4339 350.102C82.0618 350.102 81.1754 349.139 81.1669 347.597V339.909H77.5362V348.244C77.5447 351.304 79.3345 353.17 81.968 353.17C83.9368 353.17 85.3515 352.156 85.9396 350.622H86.076V353H89.5618V339.909H85.9311V347.426ZM92.0099 353H95.6406V345.142C95.6406 343.693 96.561 342.73 97.7712 342.73C98.9644 342.73 99.7656 343.548 99.7656 344.835V353H103.285V345.006C103.285 343.651 104.061 342.73 105.382 342.73C106.541 342.73 107.41 343.455 107.41 344.912V353H111.033V344.196C111.033 341.358 109.345 339.739 106.908 339.739C104.99 339.739 103.499 340.719 102.962 342.219H102.825C102.408 340.702 101.07 339.739 99.2712 339.739C97.507 339.739 96.169 340.676 95.6235 342.219H95.4701V339.909H92.0099V353ZM113.513 353H117.092V350.903H117.254C117.757 351.994 118.856 353.213 120.97 353.213C123.953 353.213 126.28 350.852 126.28 346.472C126.28 341.972 123.851 339.739 120.979 339.739C118.788 339.739 117.74 341.043 117.254 342.108H117.143V335.545H113.513V353ZM117.067 346.455C117.067 344.119 118.055 342.628 119.82 342.628C121.618 342.628 122.572 344.188 122.572 346.455C122.572 348.739 121.601 350.324 119.82 350.324C118.072 350.324 117.067 348.79 117.067 346.455ZM134.212 353.256C137.451 353.256 139.633 351.679 140.144 349.25L136.786 349.028C136.42 350.026 135.482 350.545 134.272 350.545C132.457 350.545 131.306 349.344 131.306 347.392V347.384H140.221V346.386C140.221 341.938 137.528 339.739 134.067 339.739C130.215 339.739 127.718 342.474 127.718 346.514C127.718 350.665 130.181 353.256 134.212 353.256ZM131.306 345.134C131.383 343.642 132.516 342.449 134.127 342.449C135.704 342.449 136.795 343.574 136.803 345.134H131.306ZM142.134 353H145.765V345.594C145.765 343.983 146.941 342.875 148.543 342.875C149.046 342.875 149.736 342.96 150.077 343.071V339.849C149.753 339.773 149.302 339.722 148.935 339.722C147.469 339.722 146.268 340.574 145.79 342.193H145.654V339.909H142.134V353Z" fill="#333333"/>
<rect x="244.3" y="304" width="209.4" height="80.4695" rx="2.41408" fill="#C6C9F3"/>
<path d="M325.36 340.565H328.897C328.846 337.455 326.289 335.307 322.403 335.307C318.576 335.307 315.772 337.42 315.789 340.591C315.781 343.165 317.596 344.639 320.545 345.347L322.445 345.824C324.346 346.284 325.403 346.83 325.411 348.006C325.403 349.284 324.193 350.153 322.318 350.153C320.4 350.153 319.019 349.267 318.9 347.52H315.329C315.423 351.295 318.124 353.247 322.36 353.247C326.622 353.247 329.127 351.21 329.136 348.014C329.127 345.108 326.937 343.565 323.903 342.884L322.335 342.509C320.818 342.159 319.548 341.597 319.573 340.344C319.573 339.219 320.57 338.392 322.377 338.392C324.141 338.392 325.224 339.193 325.36 340.565ZM338.057 339.909H335.594V336.773H331.963V339.909H330.173V342.636H331.963V349.455C331.946 352.02 333.693 353.29 336.327 353.179C337.264 353.145 337.929 352.957 338.296 352.838L337.724 350.136C337.546 350.17 337.162 350.256 336.821 350.256C336.097 350.256 335.594 349.983 335.594 348.977V342.636H338.057V339.909ZM339.966 353H343.597V345.594C343.597 343.983 344.773 342.875 346.375 342.875C346.878 342.875 347.568 342.96 347.909 343.071V339.849C347.585 339.773 347.134 339.722 346.767 339.722C345.301 339.722 344.099 340.574 343.622 342.193H343.486V339.909H339.966V353ZM349.33 353H352.961V339.909H349.33V353ZM351.154 338.222C352.236 338.222 353.123 337.395 353.123 336.381C353.123 335.375 352.236 334.548 351.154 334.548C350.08 334.548 349.194 335.375 349.194 336.381C349.194 337.395 350.08 338.222 351.154 338.222ZM359.044 345.432C359.053 343.744 360.058 342.756 361.524 342.756C362.981 342.756 363.859 343.71 363.851 345.312V353H367.481V344.665C367.481 341.614 365.692 339.739 362.964 339.739C361.021 339.739 359.615 340.693 359.027 342.219H358.874V339.909H355.413V353H359.044V345.432ZM375.785 358.182C379.526 358.182 382.185 356.477 382.185 353.128V339.909H378.58V342.108H378.444C377.958 341.043 376.893 339.739 374.702 339.739C371.83 339.739 369.401 341.972 369.401 346.429C369.401 350.784 371.762 352.812 374.711 352.812C376.799 352.812 377.967 351.764 378.444 350.682H378.597V353.077C378.597 354.875 377.447 355.574 375.87 355.574C374.268 355.574 373.458 354.875 373.16 354.082L369.802 354.534C370.236 356.597 372.256 358.182 375.785 358.182ZM375.861 350.085C374.08 350.085 373.109 348.67 373.109 346.412C373.109 344.188 374.063 342.628 375.861 342.628C377.626 342.628 378.614 344.119 378.614 346.412C378.614 348.722 377.609 350.085 375.861 350.085Z" fill="#333333"/>
<rect x="488.6" y="304" width="209.4" height="80.4695" rx="2.41408" fill="#C6C9F3"/>
<path d="M548.666 353H556.123C560.044 353 562.132 350.955 562.132 348.176C562.132 345.594 560.282 344.034 558.296 343.94V343.77C560.112 343.361 561.45 342.074 561.45 340.02C561.45 337.403 559.507 335.545 555.654 335.545H548.666V353ZM552.356 349.983V345.347H555.45C557.223 345.347 558.322 346.369 558.322 347.81C558.322 349.122 557.427 349.983 555.365 349.983H552.356ZM552.356 342.849V338.528H555.16C556.796 338.528 557.725 339.372 557.725 340.634C557.725 342.014 556.6 342.849 555.092 342.849H552.356ZM569.924 353.256C573.895 353.256 576.367 350.537 576.367 346.506C576.367 342.449 573.895 339.739 569.924 339.739C565.952 339.739 563.48 342.449 563.48 346.506C563.48 350.537 565.952 353.256 569.924 353.256ZM569.941 350.443C568.108 350.443 567.171 348.764 567.171 346.48C567.171 344.196 568.108 342.509 569.941 342.509C571.739 342.509 572.676 344.196 572.676 346.48C572.676 348.764 571.739 350.443 569.941 350.443ZM584.186 353.256C588.158 353.256 590.63 350.537 590.63 346.506C590.63 342.449 588.158 339.739 584.186 339.739C580.215 339.739 577.743 342.449 577.743 346.506C577.743 350.537 580.215 353.256 584.186 353.256ZM584.203 350.443C582.371 350.443 581.433 348.764 581.433 346.48C581.433 344.196 582.371 342.509 584.203 342.509C586.002 342.509 586.939 344.196 586.939 346.48C586.939 348.764 586.002 350.443 584.203 350.443ZM596.165 335.545H592.534V353H596.165V335.545ZM604.583 353.256C607.822 353.256 610.004 351.679 610.515 349.25L607.157 349.028C606.791 350.026 605.853 350.545 604.643 350.545C602.828 350.545 601.677 349.344 601.677 347.392V347.384H610.592V346.386C610.592 341.938 607.899 339.739 604.438 339.739C600.586 339.739 598.089 342.474 598.089 346.514C598.089 350.665 600.552 353.256 604.583 353.256ZM601.677 345.134C601.754 343.642 602.887 342.449 604.498 342.449C606.075 342.449 607.166 343.574 607.174 345.134H601.677ZM616.238 353.247C618.173 353.247 619.426 352.403 620.065 351.185H620.167V353H623.61V344.17C623.61 341.051 620.968 339.739 618.053 339.739C614.917 339.739 612.855 341.239 612.352 343.625L615.71 343.898C615.957 343.028 616.732 342.389 618.036 342.389C619.272 342.389 619.98 343.011 619.98 344.085V344.136C619.98 344.98 619.085 345.091 616.809 345.312C614.218 345.551 611.891 346.42 611.891 349.344C611.891 351.935 613.741 353.247 616.238 353.247ZM617.278 350.741C616.161 350.741 615.36 350.222 615.36 349.224C615.36 348.202 616.204 347.699 617.482 347.52C618.275 347.409 619.57 347.222 620.005 346.932V348.321C620.005 349.693 618.872 350.741 617.278 350.741ZM629.602 345.432C629.61 343.744 630.616 342.756 632.082 342.756C633.539 342.756 634.417 343.71 634.409 345.312V353H638.039V344.665C638.039 341.614 636.249 339.739 633.522 339.739C631.579 339.739 630.173 340.693 629.585 342.219H629.431V339.909H625.971V353H629.602V345.432Z" fill="#333333"/>
<rect x="1021" y="304" width="288" height="80.4695" rx="2.41408" fill="#C6C9F3"/>
<path d="M1144.53 344.273C1144.53 338.562 1140.99 335.307 1136.36 335.307C1131.71 335.307 1128.19 338.562 1128.19 344.273C1128.19 349.957 1131.71 353.239 1136.36 353.239C1140.99 353.239 1144.53 349.983 1144.53 344.273ZM1140.79 344.273C1140.79 347.972 1139.04 349.974 1136.36 349.974C1133.67 349.974 1131.93 347.972 1131.93 344.273C1131.93 340.574 1133.67 338.571 1136.36 338.571C1139.04 338.571 1140.79 340.574 1140.79 344.273ZM1146.81 353H1150.39V350.903H1150.55C1151.05 351.994 1152.15 353.213 1154.27 353.213C1157.25 353.213 1159.58 350.852 1159.58 346.472C1159.58 341.972 1157.15 339.739 1154.28 339.739C1152.09 339.739 1151.04 341.043 1150.55 342.108H1150.44V335.545H1146.81V353ZM1150.36 346.455C1150.36 344.119 1151.35 342.628 1153.12 342.628C1154.92 342.628 1155.87 344.188 1155.87 346.455C1155.87 348.739 1154.9 350.324 1153.12 350.324C1151.37 350.324 1150.36 348.79 1150.36 346.455ZM1161.54 339.909V353.588C1161.54 354.577 1161.13 355.071 1159.96 355.071C1159.81 355.071 1159.67 355.071 1159.48 355.054V357.892C1159.75 357.901 1159.96 357.909 1160.21 357.909C1163.3 357.909 1165.17 356.682 1165.17 353.648V339.909H1161.54ZM1163.35 338.222C1164.43 338.222 1165.32 337.395 1165.32 336.381C1165.32 335.375 1164.43 334.548 1163.35 334.548C1162.28 334.548 1161.39 335.375 1161.39 336.381C1161.39 337.395 1162.28 338.222 1163.35 338.222ZM1173.59 353.256C1176.83 353.256 1179.01 351.679 1179.52 349.25L1176.17 349.028C1175.8 350.026 1174.86 350.545 1173.65 350.545C1171.84 350.545 1170.69 349.344 1170.69 347.392V347.384H1179.6V346.386C1179.6 341.938 1176.91 339.739 1173.45 339.739C1169.6 339.739 1167.1 342.474 1167.1 346.514C1167.1 350.665 1169.56 353.256 1173.59 353.256ZM1170.69 345.134C1170.76 343.642 1171.9 342.449 1173.51 342.449C1175.08 342.449 1176.18 343.574 1176.18 345.134H1170.69ZM1187.43 353.256C1190.92 353.256 1193.11 351.21 1193.28 348.202H1189.85C1189.64 349.599 1188.72 350.384 1187.47 350.384C1185.78 350.384 1184.68 348.96 1184.68 346.455C1184.68 343.983 1185.78 342.568 1187.47 342.568C1188.8 342.568 1189.65 343.446 1189.85 344.75H1193.28C1193.12 341.724 1190.83 339.739 1187.41 339.739C1183.44 339.739 1180.99 342.491 1180.99 346.506C1180.99 350.486 1183.4 353.256 1187.43 353.256ZM1202.11 339.909H1199.64V336.773H1196.01V339.909H1194.22V342.636H1196.01V349.455C1196 352.02 1197.74 353.29 1200.38 353.179C1201.32 353.145 1201.98 352.957 1202.35 352.838L1201.78 350.136C1201.6 350.17 1201.21 350.256 1200.87 350.256C1200.15 350.256 1199.64 349.983 1199.64 348.977V342.636H1202.11V339.909Z" fill="#333333"/>
<path d="M501.5 244.469C501.5 243.641 500.829 242.969 500 242.969C499.172 242.969 498.5 243.641 498.5 244.469H501.5ZM103.64 301.061C104.225 301.646 105.175 301.646 105.761 301.061L115.307 291.515C115.893 290.929 115.893 289.979 115.307 289.393C114.721 288.808 113.771 288.808 113.185 289.393L104.7 297.879L96.2149 289.393C95.6291 288.808 94.6794 288.808 94.0936 289.393C93.5078 289.979 93.5078 290.929 94.0936 291.515L103.64 301.061ZM498.5 244.469V248.235H501.5V244.469H498.5ZM476 270.735H128.7V273.735H476V270.735ZM103.2 296.235V300H106.2V296.235H103.2ZM128.7 270.735C114.617 270.735 103.2 282.151 103.2 296.235H106.2C106.2 283.808 116.274 273.735 128.7 273.735V270.735ZM498.5 248.235C498.5 260.661 488.427 270.735 476 270.735V273.735C490.083 273.735 501.5 262.318 501.5 248.235H498.5Z" fill="#CECCCC"/>
<path d="M501.5 244.469C501.5 243.641 500.829 242.969 500 242.969C499.172 242.969 498.5 243.641 498.5 244.469H501.5ZM347.939 301.061C348.525 301.646 349.475 301.646 350.061 301.061L359.607 291.515C360.192 290.929 360.192 289.979 359.607 289.393C359.021 288.808 358.071 288.808 357.485 289.393L349 297.879L340.515 289.393C339.929 288.808 338.979 288.808 338.393 289.393C337.808 289.979 337.808 290.929 338.393 291.515L347.939 301.061ZM498.5 244.469V248.235H501.5V244.469H498.5ZM476 270.735H373V273.735H476V270.735ZM347.5 296.235V300H350.5V296.235H347.5ZM373 270.735C358.917 270.735 347.5 282.151 347.5 296.235H350.5C350.5 283.808 360.574 273.735 373 273.735V270.735ZM498.5 248.235C498.5 260.661 488.427 270.735 476 270.735V273.735C490.083 273.735 501.5 262.318 501.5 248.235H498.5Z" fill="#CECCCC"/>
<rect y="432" width="209.4" height="80.4695" rx="2.41408" fill="#C6C9F3"/>
<path d="M56.4734 475.426C56.4819 477.182 55.2802 478.102 53.9763 478.102C52.6041 478.102 51.7177 477.139 51.7092 475.597V467.909H48.0785V476.244C48.0871 479.304 49.8768 481.17 52.5103 481.17C54.4791 481.17 55.8939 480.156 56.4819 478.622H56.6183V481H60.1041V467.909H56.4734V475.426ZM66.1829 473.432C66.1914 471.744 67.1971 470.756 68.663 470.756C70.1204 470.756 70.9982 471.71 70.9897 473.312V481H74.6204V472.665C74.6204 469.614 72.8306 467.739 70.1034 467.739C68.1602 467.739 66.7539 468.693 66.1659 470.219H66.0124V467.909H62.5522V481H66.1829V473.432ZM81.8498 481.213C83.9634 481.213 85.0628 479.994 85.5657 478.903H85.7191V481H89.2986V463.545H85.6765V470.108H85.5657C85.0799 469.043 84.0316 467.739 81.8412 467.739C78.9691 467.739 76.5401 469.972 76.5401 474.472C76.5401 478.852 78.8668 481.213 81.8498 481.213ZM83.0003 478.324C81.2191 478.324 80.2475 476.739 80.2475 474.455C80.2475 472.188 81.202 470.628 83.0003 470.628C84.7645 470.628 85.7532 472.119 85.7532 474.455C85.7532 476.79 84.7475 478.324 83.0003 478.324ZM97.7936 481.256C101.032 481.256 103.214 479.679 103.725 477.25L100.367 477.028C100.001 478.026 99.0635 478.545 97.8533 478.545C96.0379 478.545 94.8874 477.344 94.8874 475.392V475.384H103.802V474.386C103.802 469.938 101.109 467.739 97.6487 467.739C93.7965 467.739 91.2993 470.474 91.2993 474.514C91.2993 478.665 93.7624 481.256 97.7936 481.256ZM94.8874 473.134C94.9641 471.642 96.0976 470.449 97.7084 470.449C99.2851 470.449 100.376 471.574 100.385 473.134H94.8874ZM112.755 467.909H110.156V467.031C110.156 466.145 110.514 465.625 111.579 465.625C112.014 465.625 112.457 465.719 112.747 465.812L113.386 463.085C112.934 462.949 111.937 462.727 110.821 462.727C108.358 462.727 106.525 464.116 106.525 466.963V467.909H104.676V470.636H106.525V481H110.156V470.636H112.755V467.909ZM114.517 481H118.148V467.909H114.517V481ZM116.341 466.222C117.424 466.222 118.31 465.395 118.31 464.381C118.31 463.375 117.424 462.548 116.341 462.548C115.267 462.548 114.381 463.375 114.381 464.381C114.381 465.395 115.267 466.222 116.341 466.222ZM124.231 473.432C124.24 471.744 125.245 470.756 126.711 470.756C128.169 470.756 129.046 471.71 129.038 473.312V481H132.669V472.665C132.669 469.614 130.879 467.739 128.151 467.739C126.208 467.739 124.802 468.693 124.214 470.219H124.061V467.909H120.6V481H124.231V473.432ZM141.04 481.256C144.279 481.256 146.46 479.679 146.972 477.25L143.614 477.028C143.247 478.026 142.31 478.545 141.1 478.545C139.284 478.545 138.134 477.344 138.134 475.392V475.384H147.048V474.386C147.048 469.938 144.355 467.739 140.895 467.739C137.043 467.739 134.546 470.474 134.546 474.514C134.546 478.665 137.009 481.256 141.04 481.256ZM138.134 473.134C138.21 471.642 139.344 470.449 140.955 470.449C142.531 470.449 143.622 471.574 143.631 473.134H138.134ZM153.786 481.213C155.899 481.213 156.999 479.994 157.502 478.903H157.655V481H161.235V463.545H157.612V470.108H157.502C157.016 469.043 155.967 467.739 153.777 467.739C150.905 467.739 148.476 469.972 148.476 474.472C148.476 478.852 150.803 481.213 153.786 481.213ZM154.936 478.324C153.155 478.324 152.183 476.739 152.183 474.455C152.183 472.188 153.138 470.628 154.936 470.628C156.7 470.628 157.689 472.119 157.689 474.455C157.689 476.79 156.683 478.324 154.936 478.324Z" fill="#333333"/>
<rect x="240" y="432" width="209.4" height="80.4695" rx="2.41408" fill="#C6C9F3"/>
<path d="M328.995 473.432C329.004 471.744 330.009 470.756 331.475 470.756C332.932 470.756 333.81 471.71 333.802 473.312V481H337.432V472.665C337.432 469.614 335.643 467.739 332.915 467.739C330.972 467.739 329.566 468.693 328.978 470.219H328.825V467.909H325.364V481H328.995V473.432ZM348.233 475.426C348.241 477.182 347.04 478.102 345.736 478.102C344.364 478.102 343.477 477.139 343.469 475.597V467.909H339.838V476.244C339.847 479.304 341.636 481.17 344.27 481.17C346.239 481.17 347.653 480.156 348.241 478.622H348.378V481H351.864V467.909H348.233V475.426ZM357.942 463.545H354.312V481H357.942V463.545ZM364.025 463.545H360.395V481H364.025V463.545Z" fill="#333333"/>
<rect x="496" y="432" width="209.4" height="80.4695" rx="2.41408" fill="#C6C9F3"/>
<path d="M568.728 468.565H572.265C572.214 465.455 569.657 463.307 565.771 463.307C561.944 463.307 559.14 465.42 559.157 468.591C559.149 471.165 560.964 472.639 563.913 473.347L565.814 473.824C567.714 474.284 568.771 474.83 568.779 476.006C568.771 477.284 567.561 478.153 565.686 478.153C563.768 478.153 562.387 477.267 562.268 475.52H558.697C558.791 479.295 561.493 481.247 565.728 481.247C569.99 481.247 572.495 479.21 572.504 476.014C572.495 473.108 570.305 471.565 567.271 470.884L565.703 470.509C564.186 470.159 562.916 469.597 562.941 468.344C562.941 467.219 563.939 466.392 565.745 466.392C567.51 466.392 568.592 467.193 568.728 468.565ZM576.703 485.909C579.405 485.909 580.837 484.528 581.578 482.415L586.667 467.926L582.823 467.909L580.087 477.523H579.951L577.24 467.909H573.422L578.118 481.375L577.905 481.929C577.428 483.156 576.516 483.216 575.238 482.824L574.419 485.534C574.939 485.756 575.783 485.909 576.703 485.909ZM588.068 481H591.699V473.142C591.699 471.693 592.62 470.73 593.83 470.73C595.023 470.73 595.824 471.548 595.824 472.835V481H599.344V473.006C599.344 471.651 600.12 470.73 601.441 470.73C602.6 470.73 603.469 471.455 603.469 472.912V481H607.091V472.196C607.091 469.358 605.404 467.739 602.966 467.739C601.049 467.739 599.557 468.719 599.02 470.219H598.884C598.466 468.702 597.128 467.739 595.33 467.739C593.566 467.739 592.228 468.676 591.682 470.219H591.529V467.909H588.068V481ZM609.571 481H613.151V478.903H613.313C613.816 479.994 614.915 481.213 617.029 481.213C620.012 481.213 622.338 478.852 622.338 474.472C622.338 469.972 619.909 467.739 617.037 467.739C614.847 467.739 613.799 469.043 613.313 470.108H613.202V463.545H609.571V481ZM613.125 474.455C613.125 472.119 614.114 470.628 615.878 470.628C617.676 470.628 618.631 472.188 618.631 474.455C618.631 476.739 617.659 478.324 615.878 478.324C614.131 478.324 613.125 476.79 613.125 474.455ZM630.22 481.256C634.191 481.256 636.663 478.537 636.663 474.506C636.663 470.449 634.191 467.739 630.22 467.739C626.248 467.739 623.776 470.449 623.776 474.506C623.776 478.537 626.248 481.256 630.22 481.256ZM630.237 478.443C628.404 478.443 627.467 476.764 627.467 474.48C627.467 472.196 628.404 470.509 630.237 470.509C632.035 470.509 632.973 472.196 632.973 474.48C632.973 476.764 632.035 478.443 630.237 478.443ZM642.198 463.545H638.568V481H642.198V463.545Z" fill="#333333"/>
<path d="M501.5 244.469C501.5 243.641 500.828 242.969 500 242.969C499.172 242.969 498.5 243.641 498.5 244.469H501.5ZM610.939 305.061C611.525 305.646 612.475 305.646 613.061 305.061L622.607 295.515C623.192 294.929 623.192 293.979 622.607 293.393C622.021 292.808 621.071 292.808 620.485 293.393L612 301.879L603.515 293.393C602.929 292.808 601.979 292.808 601.393 293.393C600.808 293.979 600.808 294.929 601.393 295.515L610.939 305.061ZM498.5 244.469V248.235H501.5V244.469H498.5ZM524 273.735H588V270.735H524V273.735ZM610.5 296.235V304H613.5V296.235H610.5ZM588 273.735C600.426 273.735 610.5 283.808 610.5 296.235H613.5C613.5 282.151 602.083 270.735 588 270.735V273.735ZM498.5 248.235C498.5 262.318 509.917 273.735 524 273.735V270.735C511.574 270.735 501.5 260.661 501.5 248.235H498.5Z" fill="#CECCCC"/>
<path d="M501.5 244.469C501.5 243.641 500.828 242.969 500 242.969C499.172 242.969 498.5 243.641 498.5 244.469H501.5ZM122.174 433.061C122.76 433.646 123.71 433.646 124.296 433.061L133.841 423.515C134.427 422.929 134.427 421.979 133.841 421.393C133.256 420.808 132.306 420.808 131.72 421.393L123.235 429.879L114.75 421.393C114.164 420.808 113.214 420.808 112.628 421.393C112.042 421.979 112.042 422.929 112.628 423.515L122.174 433.061ZM498.5 244.469V248H501.5V244.469H498.5ZM524 273.5H716V270.5H524V273.5ZM738.5 296V376H741.5V296H738.5ZM716 398.5H147.235V401.5H716V398.5ZM121.735 424V432H124.735V424H121.735ZM147.235 398.5C133.152 398.5 121.735 409.917 121.735 424H124.735C124.735 411.574 134.808 401.5 147.235 401.5V398.5ZM738.5 376C738.5 388.426 728.426 398.5 716 398.5V401.5C730.083 401.5 741.5 390.083 741.5 376H738.5ZM716 273.5C728.426 273.5 738.5 283.574 738.5 296H741.5C741.5 281.917 730.083 270.5 716 270.5V273.5ZM498.5 248C498.5 262.083 509.917 273.5 524 273.5V270.5C511.574 270.5 501.5 260.426 501.5 248H498.5Z" fill="#CECCCC"/>
<path d="M501.5 244.469C501.5 243.641 500.829 242.969 500 242.969C499.172 242.969 498.5 243.641 498.5 244.469H501.5ZM343.64 429.061C344.225 429.646 345.175 429.646 345.761 429.061L355.307 419.515C355.893 418.929 355.893 417.979 355.307 417.393C354.721 416.808 353.771 416.808 353.185 417.393L344.7 425.879L336.215 417.393C335.629 416.808 334.679 416.808 334.094 417.393C333.508 417.979 333.508 418.929 334.094 419.515L343.64 429.061ZM498.5 244.469V248H501.5V244.469H498.5ZM524 273.5H716V270.5H524V273.5ZM738.5 296V376H741.5V296H738.5ZM716 398.5H368.7V401.5H716V398.5ZM343.2 424V428H346.2V424H343.2ZM368.7 398.5C354.617 398.5 343.2 409.917 343.2 424H346.2C346.2 411.574 356.274 401.5 368.7 401.5V398.5ZM738.5 376C738.5 388.426 728.427 398.5 716 398.5V401.5C730.083 401.5 741.5 390.083 741.5 376H738.5ZM716 273.5C728.427 273.5 738.5 283.574 738.5 296H741.5C741.5 281.917 730.083 270.5 716 270.5V273.5ZM498.5 248C498.5 262.083 509.917 273.5 524 273.5V270.5C511.574 270.5 501.5 260.426 501.5 248H498.5Z" fill="#CECCCC"/>
<path d="M501.5 244.469C501.5 243.641 500.828 242.969 500 242.969C499.172 242.969 498.5 243.641 498.5 244.469H501.5ZM599.639 429.061C600.225 429.646 601.175 429.646 601.761 429.061L611.307 419.515C611.892 418.929 611.892 417.979 611.307 417.393C610.721 416.808 609.771 416.808 609.185 417.393L600.7 425.879L592.215 417.393C591.629 416.808 590.679 416.808 590.093 417.393C589.508 417.979 589.508 418.929 590.093 419.515L599.639 429.061ZM498.5 244.469V248H501.5V244.469H498.5ZM524 273.5H716V270.5H524V273.5ZM738.5 296V376H741.5V296H738.5ZM716 398.5H624.7V401.5H716V398.5ZM599.2 424V428H602.2V424H599.2ZM624.7 398.5C610.617 398.5 599.2 409.917 599.2 424H602.2C602.2 411.574 612.274 401.5 624.7 401.5V398.5ZM738.5 376C738.5 388.426 728.426 398.5 716 398.5V401.5C730.083 401.5 741.5 390.083 741.5 376H738.5ZM716 273.5C728.426 273.5 738.5 283.574 738.5 296H741.5C741.5 281.917 730.083 270.5 716 270.5V273.5ZM498.5 248C498.5 262.083 509.917 273.5 524 273.5V270.5C511.574 270.5 501.5 260.426 501.5 248H498.5Z" fill="#CECCCC"/>
<path d="M1166.5 244.469C1166.5 243.641 1165.83 242.969 1165 242.969C1164.17 242.969 1163.5 243.641 1163.5 244.469H1166.5ZM1163.94 301.061C1164.53 301.646 1165.47 301.646 1166.06 301.061L1175.61 291.515C1176.19 290.929 1176.19 289.979 1175.61 289.393C1175.02 288.808 1174.07 288.808 1173.49 289.393L1165 297.879L1156.51 289.393C1155.93 288.808 1154.98 288.808 1154.39 289.393C1153.81 289.979 1153.81 290.929 1154.39 291.515L1163.94 301.061ZM1163.5 244.469V300H1166.5V244.469H1163.5Z" fill="#CECCCC"/>
<rect x="820" y="432" width="209.4" height="80.4695" rx="2.41408" fill="#C6C9F3"/>
<path d="M897.771 481L899.066 477.02H905.364L906.66 481H910.614L904.597 463.545H899.842L893.816 481H897.771ZM900.004 474.139L902.151 467.534H902.288L904.435 474.139H900.004ZM912.191 481H915.822V473.594C915.822 471.983 916.998 470.875 918.6 470.875C919.103 470.875 919.793 470.96 920.134 471.071V467.849C919.81 467.773 919.359 467.722 918.992 467.722C917.526 467.722 916.325 468.574 915.847 470.193H915.711V467.909H912.191V481ZM921.555 481H925.186V473.594C925.186 471.983 926.362 470.875 927.964 470.875C928.467 470.875 929.158 470.96 929.498 471.071V467.849C929.175 467.773 928.723 467.722 928.356 467.722C926.891 467.722 925.689 468.574 925.212 470.193H925.075V467.909H921.555V481ZM934.278 481.247C936.212 481.247 937.465 480.403 938.104 479.185H938.207V481H941.65V472.17C941.65 469.051 939.008 467.739 936.093 467.739C932.957 467.739 930.894 469.239 930.391 471.625L933.749 471.898C933.996 471.028 934.772 470.389 936.076 470.389C937.312 470.389 938.019 471.011 938.019 472.085V472.136C938.019 472.98 937.124 473.091 934.849 473.312C932.258 473.551 929.931 474.42 929.931 477.344C929.931 479.935 931.78 481.247 934.278 481.247ZM935.317 478.741C934.201 478.741 933.4 478.222 933.4 477.224C933.4 476.202 934.243 475.699 935.522 475.52C936.315 475.409 937.61 475.222 938.045 474.932V476.321C938.045 477.693 936.911 478.741 935.317 478.741ZM945.783 485.909C948.485 485.909 949.917 484.528 950.658 482.415L955.746 467.926L951.903 467.909L949.167 477.523H949.03L946.32 467.909H942.502L947.198 481.375L946.985 481.929C946.508 483.156 945.596 483.216 944.317 482.824L943.499 485.534C944.019 485.756 944.863 485.909 945.783 485.909Z" fill="#333333"/>
<rect x="1060" y="432" width="209.4" height="80.4695" rx="2.41408" fill="#C6C9F3"/>
<path d="M1116.47 481H1120.16V473.79H1127.26V470.747H1120.16V466.588H1128.03V463.545H1116.47V481ZM1137.56 475.426C1137.57 477.182 1136.37 478.102 1135.07 478.102C1133.69 478.102 1132.81 477.139 1132.8 475.597V467.909H1129.17V476.244C1129.18 479.304 1130.97 481.17 1133.6 481.17C1135.57 481.17 1136.98 480.156 1137.57 478.622H1137.71V481H1141.19V467.909H1137.56V475.426ZM1147.27 473.432C1147.28 471.744 1148.29 470.756 1149.75 470.756C1151.21 470.756 1152.09 471.71 1152.08 473.312V481H1155.71V472.665C1155.71 469.614 1153.92 467.739 1151.19 467.739C1149.25 467.739 1147.84 468.693 1147.26 470.219H1147.1V467.909H1143.64V481H1147.27V473.432ZM1164.03 481.256C1167.52 481.256 1169.71 479.21 1169.88 476.202H1166.45C1166.24 477.599 1165.32 478.384 1164.07 478.384C1162.38 478.384 1161.28 476.96 1161.28 474.455C1161.28 471.983 1162.39 470.568 1164.07 470.568C1165.4 470.568 1166.25 471.446 1166.45 472.75H1169.88C1169.72 469.724 1167.43 467.739 1164.01 467.739C1160.04 467.739 1157.59 470.491 1157.59 474.506C1157.59 478.486 1160 481.256 1164.03 481.256ZM1178.71 467.909H1176.25V464.773H1172.61V467.909H1170.82V470.636H1172.61V477.455C1172.6 480.02 1174.34 481.29 1176.98 481.179C1177.92 481.145 1178.58 480.957 1178.95 480.838L1178.38 478.136C1178.2 478.17 1177.81 478.256 1177.47 478.256C1176.75 478.256 1176.25 477.983 1176.25 476.977V470.636H1178.71V467.909ZM1180.62 481H1184.25V467.909H1180.62V481ZM1182.44 466.222C1183.52 466.222 1184.41 465.395 1184.41 464.381C1184.41 463.375 1183.52 462.548 1182.44 462.548C1181.37 462.548 1180.48 463.375 1180.48 464.381C1180.48 465.395 1181.37 466.222 1182.44 466.222ZM1192.62 481.256C1196.59 481.256 1199.06 478.537 1199.06 474.506C1199.06 470.449 1196.59 467.739 1192.62 467.739C1188.64 467.739 1186.17 470.449 1186.17 474.506C1186.17 478.537 1188.64 481.256 1192.62 481.256ZM1192.63 478.443C1190.8 478.443 1189.86 476.764 1189.86 474.48C1189.86 472.196 1190.8 470.509 1192.63 470.509C1194.43 470.509 1195.37 472.196 1195.37 474.48C1195.37 476.764 1194.43 478.443 1192.63 478.443ZM1204.59 473.432C1204.6 471.744 1205.61 470.756 1207.07 470.756C1208.53 470.756 1209.41 471.71 1209.4 473.312V481H1213.03V472.665C1213.03 469.614 1211.24 467.739 1208.51 467.739C1206.57 467.739 1205.16 468.693 1204.58 470.219H1204.42V467.909H1200.96V481H1204.59V473.432Z" fill="#333333"/>
<rect x="1316" y="432" width="209.4" height="80.4695" rx="2.41408" fill="#C6C9F3"/>
<path d="M1392.53 481.222C1393.62 481.222 1394.57 480.31 1394.58 479.176C1394.57 478.06 1393.62 477.148 1392.53 477.148C1391.41 477.148 1390.48 478.06 1390.49 479.176C1390.48 480.31 1391.41 481.222 1392.53 481.222ZM1399.23 481.222C1400.32 481.222 1401.26 480.31 1401.27 479.176C1401.26 478.06 1400.32 477.148 1399.23 477.148C1398.1 477.148 1397.17 478.06 1397.18 479.176C1397.17 480.31 1398.1 481.222 1399.23 481.222ZM1405.92 481.222C1407.01 481.222 1407.96 480.31 1407.96 479.176C1407.96 478.06 1407.01 477.148 1405.92 477.148C1404.79 477.148 1403.86 478.06 1403.87 479.176C1403.86 480.31 1404.79 481.222 1405.92 481.222ZM1416.45 481.256C1419.69 481.256 1421.88 479.679 1422.39 477.25L1419.03 477.028C1418.66 478.026 1417.72 478.545 1416.51 478.545C1414.7 478.545 1413.55 477.344 1413.55 475.392V475.384H1422.46V474.386C1422.46 469.938 1419.77 467.739 1416.31 467.739C1412.46 467.739 1409.96 470.474 1409.96 474.514C1409.96 478.665 1412.42 481.256 1416.45 481.256ZM1413.55 473.134C1413.63 471.642 1414.76 470.449 1416.37 470.449C1417.95 470.449 1419.04 471.574 1419.05 473.134H1413.55ZM1431.34 467.909H1428.88V464.773H1425.25V467.909H1423.46V470.636H1425.25V477.455C1425.23 480.02 1426.98 481.29 1429.61 481.179C1430.55 481.145 1431.21 480.957 1431.58 480.838L1431.01 478.136C1430.83 478.17 1430.44 478.256 1430.1 478.256C1429.38 478.256 1428.88 477.983 1428.88 476.977V470.636H1431.34V467.909ZM1439.02 481.256C1442.51 481.256 1444.7 479.21 1444.87 476.202H1441.44C1441.23 477.599 1440.31 478.384 1439.07 478.384C1437.37 478.384 1436.27 476.96 1436.27 474.455C1436.27 471.983 1437.38 470.568 1439.07 470.568C1440.4 470.568 1441.25 471.446 1441.44 472.75H1444.87C1444.72 469.724 1442.42 467.739 1439.01 467.739C1435.03 467.739 1432.58 470.491 1432.58 474.506C1432.58 478.486 1434.99 481.256 1439.02 481.256ZM1448.86 481.222C1449.95 481.222 1450.9 480.31 1450.91 479.176C1450.9 478.06 1449.95 477.148 1448.86 477.148C1447.74 477.148 1446.81 478.06 1446.81 479.176C1446.81 480.31 1447.74 481.222 1448.86 481.222Z" fill="#333333"/>
<path d="M1145.23 406.735H944.465V409.735H1145.23V406.735ZM944.465 406.735C932.721 406.735 923.2 416.256 923.2 428H926.2C926.2 417.912 934.378 409.735 944.465 409.735V406.735ZM1163.5 388.469C1163.5 398.557 1155.32 406.735 1145.23 406.735V409.735C1156.98 409.735 1166.5 400.214 1166.5 388.469H1163.5Z" fill="#CECCCC"/>
<path d="M1166.5 388.469C1166.5 387.641 1165.83 386.969 1165 386.969C1164.17 386.969 1163.5 387.641 1163.5 388.469H1166.5ZM1163.64 429.061C1164.23 429.646 1165.18 429.646 1165.76 429.061L1175.31 419.515C1175.89 418.929 1175.89 417.979 1175.31 417.393C1174.72 416.808 1173.77 416.808 1173.19 417.393L1164.7 425.879L1156.21 417.393C1155.63 416.808 1154.68 416.808 1154.09 417.393C1153.51 417.979 1153.51 418.929 1154.09 419.515L1163.64 429.061ZM1163.5 388.469V408.085H1166.5V388.469H1163.5ZM1163.2 408.385V428H1166.2V408.385H1163.2ZM1164.85 406.735C1163.94 406.735 1163.2 407.473 1163.2 408.385H1166.2C1166.2 409.13 1165.6 409.735 1164.85 409.735V406.735ZM1163.5 408.085C1163.5 407.339 1164.1 406.735 1164.85 406.735V409.735C1165.76 409.735 1166.5 408.996 1166.5 408.085H1163.5Z" fill="#CECCCC"/>
<path d="M1184.77 409.735H1400.93V406.735H1184.77V409.735ZM1400.93 409.735C1411.02 409.735 1419.2 417.912 1419.2 428H1422.2C1422.2 416.256 1412.68 406.735 1400.93 406.735V409.735ZM1163.5 388.469C1163.5 400.214 1173.02 409.735 1184.77 409.735V406.735C1174.68 406.735 1166.5 398.557 1166.5 388.469H1163.5Z" fill="#CECCCC"/>
</svg>
